<?xml version="1.0" encoding="utf-8"?>
<!-- Generator: Adobe Illustrator 19.2.1, SVG Export Plug-In . SVG Version: 6.00 Build 0)  -->
<svg version="1.1"
	 id="Layer_1" xmlns:cc="http://creativecommons.org/ns#" xmlns:dc="http://purl.org/dc/elements/1.1/" xmlns:rdf="http://www.w3.org/1999/02/22-rdf-syntax-ns#"
	 xmlns="http://www.w3.org/2000/svg" xmlns:xlink="http://www.w3.org/1999/xlink" x="0px" y="0px" viewBox="0 0 24 26.2"
	 style="enable-background:new 0 0 24 26.2;" xml:space="preserve">
<style type="text/css">
	.st0{fill:#076ED2;}
	.st1{fill:#3084D6;}
	.st2{fill:#207CD6;}
	.st3{fill:#0B72D6;}
</style>
<g transform="translate(0 -1028.4)">
	<path class="st0" d="M2.2,1040.3l0.6,1.9l0.3,1l0.9,2.9l0.3,1l1.5,4.8l0.3,1c0.3,1.1,1.5,1.6,2.5,1.3l13.3-4.3
		c1.1-0.3,1.6-1.5,1.3-2.5l-0.3-1l-1.5-4.8l-1.2-3.8l-0.9-2.9L2.2,1040.3z"/>
	<path class="st1" d="M1.9,1039.4l0.6,1.9l0.3,1l0.9,2.9l0.3,1l1.5,4.8l0.3,1c0.3,1,1.5,1.6,2.5,1.3l13.3-4.3
		c1.1-0.3,1.6-1.5,1.3-2.5l-0.3-1l-1.5-4.8l-1.2-3.8l-0.9-2.9L1.9,1039.4z"/>
	<path class="st2" d="M1.6,1038.4l0.6,1.9l0.3,1l0.9,2.9l0.3,1l1.5,4.8l0.3,1c0.3,1,1.5,1.6,2.5,1.3l13.3-4.3
		c1.1-0.3,1.6-1.5,1.3-2.5l-0.3-1l-1.5-4.8l-1.2-3.8l-0.9-2.9L1.6,1038.4z"/>
	<path class="st1" d="M1.3,1037.5l0.6,1.9l0.3,1l0.9,2.9l0.3,1l1.5,4.8l0.3,1c0.3,1,1.5,1.6,2.5,1.3l13.3-4.3
		c1.1-0.3,1.6-1.5,1.3-2.5l-0.3-1l-1.5-4.8l-1.2-3.8l-0.9-2.9L1.3,1037.5z"/>
	<path class="st0" d="M2,1033.1c-1.1,0.3-1.6,1.5-1.3,2.5l0.3,1l1.2,3.8l0.6,1.9l0.3,1l0.9,2.9l0.3,1l1.5,4.8l0.3,1
		c0.3,1.1,1.5,1.6,2.5,1.3l1.9-0.6l-0.3-1l-1.4,0.5c-0.8,0.3-1.6-0.2-1.9-1c-0.3-0.8,0.2-1.6,1-1.9l11.9-3.8l1-0.3
		c1.1-0.3,1.6-1.5,1.3-2.5l-0.3-1l-1.5-4.8l-1.2-3.8l-0.9-2.9l-0.3-1c-0.3-1.1-1.5-1.6-2.5-1.3l-3.8,1.2L2,1033.1z"/>
	<path class="st3" d="M4.8,1032.2l5.5,17.1l1-0.3l8.6-2.7l1-0.3c1.1-0.3,1.6-1.5,1.3-2.5l-0.3-1l-1.5-4.8l-1.2-3.8l-0.9-2.9l-0.3-1
		c-0.3-1.1-1.5-1.6-2.5-1.3l-3.8,1.2l-5.7,1.8L4.8,1032.2z"/>
</g>
</svg>
